<svg width="186" height="44" viewBox="0 0 186 44" fill="none" xmlns="http://www.w3.org/2000/svg">
<path d="M32.0996 9.83691H35.2725V12.1309H32.0996V15.7168H29.6826V12.1309H26.501V9.83691H29.6826V6.40039H32.0996V9.83691ZM45.3975 5.62695L40.4492 17H37.7686L42.7256 6.25977H36.3623V4.20312H45.3975V5.62695ZM51.7344 11.7969C51.7344 10.4551 51.9131 9.17773 52.2705 7.96484C52.6279 6.75195 53.1553 5.67969 53.8525 4.74805C54.5498 3.81055 55.3057 3.16016 56.1201 2.79688L56.6123 4.16797C55.7568 4.80078 55.0889 5.7793 54.6084 7.10352C54.1279 8.42773 53.8877 9.97461 53.8877 11.7441V12.0166C53.8877 13.792 54.125 15.3447 54.5996 16.6748C55.0742 18.0049 55.7451 18.998 56.6123 19.6543L56.1201 20.999C55.3232 20.6416 54.5791 20.0088 53.8877 19.1006C53.2021 18.1982 52.6777 17.1553 52.3145 15.9717C51.9512 14.7881 51.7578 13.5518 51.7344 12.2627V11.7969ZM66.4561 11.709C66.4561 13.4785 66.0898 14.832 65.3574 15.7695C64.625 16.707 63.5527 17.1758 62.1406 17.1758C60.7461 17.1758 59.6797 16.7158 58.9414 15.7959C58.2031 14.876 57.8252 13.5576 57.8076 11.8408V9.48535C57.8076 7.69824 58.1768 6.3418 58.915 5.41602C59.6592 4.49023 60.7285 4.02734 62.123 4.02734C63.5176 4.02734 64.584 4.4873 65.3223 5.40723C66.0605 6.32129 66.4385 7.63672 66.4561 9.35352V11.709ZM63.916 9.125C63.916 8.06445 63.7695 7.29395 63.4766 6.81348C63.1895 6.32715 62.7383 6.08398 62.123 6.08398C61.5254 6.08398 61.083 6.31543 60.7959 6.77832C60.5146 7.23535 60.3652 7.95313 60.3477 8.93164V12.043C60.3477 13.0859 60.4883 13.8623 60.7695 14.3721C61.0566 14.876 61.5137 15.1279 62.1406 15.1279C62.7617 15.1279 63.21 14.8848 63.4854 14.3984C63.7607 13.9121 63.9043 13.168 63.916 12.166V9.125ZM76.792 11.709C76.792 13.4785 76.4258 14.832 75.6934 15.7695C74.9609 16.707 73.8887 17.1758 72.4766 17.1758C71.082 17.1758 70.0156 16.7158 69.2773 15.7959C68.5391 14.876 68.1611 13.5576 68.1436 11.8408V9.48535C68.1436 7.69824 68.5127 6.3418 69.251 5.41602C69.9951 4.49023 71.0645 4.02734 72.459 4.02734C73.8535 4.02734 74.9199 4.4873 75.6582 5.40723C76.3965 6.32129 76.7744 7.63672 76.792 9.35352V11.709ZM74.252 9.125C74.252 8.06445 74.1055 7.29395 73.8125 6.81348C73.5254 6.32715 73.0742 6.08398 72.459 6.08398C71.8613 6.08398 71.4189 6.31543 71.1318 6.77832C70.8506 7.23535 70.7012 7.95313 70.6836 8.93164V12.043C70.6836 13.0859 70.8242 13.8623 71.1055 14.3721C71.3926 14.876 71.8496 15.1279 72.4766 15.1279C73.0977 15.1279 73.5459 14.8848 73.8213 14.3984C74.0967 13.9121 74.2402 13.168 74.252 12.166V9.125ZM87.1279 11.709C87.1279 13.4785 86.7617 14.832 86.0293 15.7695C85.2969 16.707 84.2246 17.1758 82.8125 17.1758C81.418 17.1758 80.3516 16.7158 79.6133 15.7959C78.875 14.876 78.4971 13.5576 78.4795 11.8408V9.48535C78.4795 7.69824 78.8486 6.3418 79.5869 5.41602C80.3311 4.49023 81.4004 4.02734 82.7949 4.02734C84.1895 4.02734 85.2559 4.4873 85.9941 5.40723C86.7324 6.32129 87.1104 7.63672 87.1279 9.35352V11.709ZM84.5879 9.125C84.5879 8.06445 84.4414 7.29395 84.1484 6.81348C83.8613 6.32715 83.4102 6.08398 82.7949 6.08398C82.1973 6.08398 81.7549 6.31543 81.4678 6.77832C81.1865 7.23535 81.0371 7.95313 81.0195 8.93164V12.043C81.0195 13.0859 81.1602 13.8623 81.4414 14.3721C81.7285 14.876 82.1855 15.1279 82.8125 15.1279C83.4336 15.1279 83.8818 14.8848 84.1572 14.3984C84.4326 13.9121 84.5762 13.168 84.5879 12.166V9.125ZM93.333 11.999C93.333 13.3232 93.1426 14.5977 92.7617 15.8223C92.3809 17.0469 91.833 18.1279 91.1182 19.0654C90.4033 20.0029 89.6387 20.6475 88.8242 20.999L88.332 19.6543C89.1641 19.0273 89.8203 18.0605 90.3008 16.7539C90.7812 15.4473 91.0303 13.9443 91.0479 12.2451V11.7793C91.0479 10.0273 90.8076 8.4834 90.3271 7.14746C89.8525 5.81152 89.1875 4.80957 88.332 4.1416L88.8242 2.79688C89.6211 3.14258 90.3711 3.76953 91.0742 4.67773C91.7832 5.58594 92.3311 6.64355 92.7178 7.85059C93.1104 9.05762 93.3154 10.3086 93.333 11.6035V11.999ZM108.292 11.709C108.292 13.4785 107.926 14.832 107.193 15.7695C106.461 16.707 105.389 17.1758 103.977 17.1758C102.582 17.1758 101.516 16.7158 100.777 15.7959C100.039 14.876 99.6611 13.5576 99.6436 11.8408V9.48535C99.6436 7.69824 100.013 6.3418 100.751 5.41602C101.495 4.49023 102.564 4.02734 103.959 4.02734C105.354 4.02734 106.42 4.4873 107.158 5.40723C107.896 6.32129 108.274 7.63672 108.292 9.35352V11.709ZM105.752 9.125C105.752 8.06445 105.605 7.29395 105.312 6.81348C105.025 6.32715 104.574 6.08398 103.959 6.08398C103.361 6.08398 102.919 6.31543 102.632 6.77832C102.351 7.23535 102.201 7.95313 102.184 8.93164V12.043C102.184 13.0859 102.324 13.8623 102.605 14.3721C102.893 14.876 103.35 15.1279 103.977 15.1279C104.598 15.1279 105.046 14.8848 105.321 14.3984C105.597 13.9121 105.74 13.168 105.752 12.166V9.125ZM118.628 11.709C118.628 13.4785 118.262 14.832 117.529 15.7695C116.797 16.707 115.725 17.1758 114.312 17.1758C112.918 17.1758 111.852 16.7158 111.113 15.7959C110.375 14.876 109.997 13.5576 109.979 11.8408V9.48535C109.979 7.69824 110.349 6.3418 111.087 5.41602C111.831 4.49023 112.9 4.02734 114.295 4.02734C115.689 4.02734 116.756 4.4873 117.494 5.40723C118.232 6.32129 118.61 7.63672 118.628 9.35352V11.709ZM116.088 9.125C116.088 8.06445 115.941 7.29395 115.648 6.81348C115.361 6.32715 114.91 6.08398 114.295 6.08398C113.697 6.08398 113.255 6.31543 112.968 6.77832C112.687 7.23535 112.537 7.95313 112.52 8.93164V12.043C112.52 13.0859 112.66 13.8623 112.941 14.3721C113.229 14.876 113.686 15.1279 114.312 15.1279C114.934 15.1279 115.382 14.8848 115.657 14.3984C115.933 13.9121 116.076 13.168 116.088 12.166V9.125ZM128.964 11.709C128.964 13.4785 128.598 14.832 127.865 15.7695C127.133 16.707 126.061 17.1758 124.648 17.1758C123.254 17.1758 122.188 16.7158 121.449 15.7959C120.711 14.876 120.333 13.5576 120.315 11.8408V9.48535C120.315 7.69824 120.685 6.3418 121.423 5.41602C122.167 4.49023 123.236 4.02734 124.631 4.02734C126.025 4.02734 127.092 4.4873 127.83 5.40723C128.568 6.32129 128.946 7.63672 128.964 9.35352V11.709ZM126.424 9.125C126.424 8.06445 126.277 7.29395 125.984 6.81348C125.697 6.32715 125.246 6.08398 124.631 6.08398C124.033 6.08398 123.591 6.31543 123.304 6.77832C123.022 7.23535 122.873 7.95313 122.855 8.93164V12.043C122.855 13.0859 122.996 13.8623 123.277 14.3721C123.564 14.876 124.021 15.1279 124.648 15.1279C125.27 15.1279 125.718 14.8848 125.993 14.3984C126.269 13.9121 126.412 13.168 126.424 12.166V9.125ZM135.731 12.5439H130.783V10.4961H135.731V12.5439ZM146.278 11.709C146.278 13.4785 145.912 14.832 145.18 15.7695C144.447 16.707 143.375 17.1758 141.963 17.1758C140.568 17.1758 139.502 16.7158 138.764 15.7959C138.025 14.876 137.647 13.5576 137.63 11.8408V9.48535C137.63 7.69824 137.999 6.3418 138.737 5.41602C139.481 4.49023 140.551 4.02734 141.945 4.02734C143.34 4.02734 144.406 4.4873 145.145 5.40723C145.883 6.32129 146.261 7.63672 146.278 9.35352V11.709ZM143.738 9.125C143.738 8.06445 143.592 7.29395 143.299 6.81348C143.012 6.32715 142.561 6.08398 141.945 6.08398C141.348 6.08398 140.905 6.31543 140.618 6.77832C140.337 7.23535 140.188 7.95313 140.17 8.93164V12.043C140.17 13.0859 140.311 13.8623 140.592 14.3721C140.879 14.876 141.336 15.1279 141.963 15.1279C142.584 15.1279 143.032 14.8848 143.308 14.3984C143.583 13.9121 143.727 13.168 143.738 12.166V9.125ZM156.614 11.709C156.614 13.4785 156.248 14.832 155.516 15.7695C154.783 16.707 153.711 17.1758 152.299 17.1758C150.904 17.1758 149.838 16.7158 149.1 15.7959C148.361 14.876 147.983 13.5576 147.966 11.8408V9.48535C147.966 7.69824 148.335 6.3418 149.073 5.41602C149.817 4.49023 150.887 4.02734 152.281 4.02734C153.676 4.02734 154.742 4.4873 155.48 5.40723C156.219 6.32129 156.597 7.63672 156.614 9.35352V11.709ZM154.074 9.125C154.074 8.06445 153.928 7.29395 153.635 6.81348C153.348 6.32715 152.896 6.08398 152.281 6.08398C151.684 6.08398 151.241 6.31543 150.954 6.77832C150.673 7.23535 150.523 7.95313 150.506 8.93164V12.043C150.506 13.0859 150.646 13.8623 150.928 14.3721C151.215 14.876 151.672 15.1279 152.299 15.1279C152.92 15.1279 153.368 14.8848 153.644 14.3984C153.919 13.9121 154.062 13.168 154.074 12.166V9.125ZM163.382 12.5439H158.434V10.4961H163.382V12.5439ZM173.929 11.709C173.929 13.4785 173.562 14.832 172.83 15.7695C172.098 16.707 171.025 17.1758 169.613 17.1758C168.219 17.1758 167.152 16.7158 166.414 15.7959C165.676 14.876 165.298 13.5576 165.28 11.8408V9.48535C165.28 7.69824 165.649 6.3418 166.388 5.41602C167.132 4.49023 168.201 4.02734 169.596 4.02734C170.99 4.02734 172.057 4.4873 172.795 5.40723C173.533 6.32129 173.911 7.63672 173.929 9.35352V11.709ZM171.389 9.125C171.389 8.06445 171.242 7.29395 170.949 6.81348C170.662 6.32715 170.211 6.08398 169.596 6.08398C168.998 6.08398 168.556 6.31543 168.269 6.77832C167.987 7.23535 167.838 7.95313 167.82 8.93164V12.043C167.82 13.0859 167.961 13.8623 168.242 14.3721C168.529 14.876 168.986 15.1279 169.613 15.1279C170.234 15.1279 170.683 14.8848 170.958 14.3984C171.233 13.9121 171.377 13.168 171.389 12.166V9.125ZM184.265 11.709C184.265 13.4785 183.898 14.832 183.166 15.7695C182.434 16.707 181.361 17.1758 179.949 17.1758C178.555 17.1758 177.488 16.7158 176.75 15.7959C176.012 14.876 175.634 13.5576 175.616 11.8408V9.48535C175.616 7.69824 175.985 6.3418 176.724 5.41602C177.468 4.49023 178.537 4.02734 179.932 4.02734C181.326 4.02734 182.393 4.4873 183.131 5.40723C183.869 6.32129 184.247 7.63672 184.265 9.35352V11.709ZM181.725 9.125C181.725 8.06445 181.578 7.29395 181.285 6.81348C180.998 6.32715 180.547 6.08398 179.932 6.08398C179.334 6.08398 178.892 6.31543 178.604 6.77832C178.323 7.23535 178.174 7.95313 178.156 8.93164V12.043C178.156 13.0859 178.297 13.8623 178.578 14.3721C178.865 14.876 179.322 15.1279 179.949 15.1279C180.57 15.1279 181.019 14.8848 181.294 14.3984C181.569 13.9121 181.713 13.168 181.725 12.166V9.125Z" fill="#202020"/>
<path d="M32.2969 36.728H28.2915V40.0034H32.9443V41H27.0728V31.7578H32.8809V32.7607H28.2915V35.7314H32.2969V36.728ZM39.7554 38.0166H38.9302V41H37.7559V38.0166H36.9307L35.0073 41H33.522L35.9785 37.4453L33.7568 34.1318H35.1787L36.9497 36.9756H37.7559V34.1318H38.9302V36.9756H39.73L41.5137 34.1318H42.9355L40.7075 37.4517L43.1641 41H41.6787L39.7554 38.0166ZM46.9536 41.127C46.0226 41.127 45.2651 40.8223 44.6812 40.2129C44.0972 39.5993 43.8052 38.7804 43.8052 37.7563V37.5405C43.8052 36.8592 43.9342 36.252 44.1924 35.7188C44.4548 35.1813 44.8187 34.7624 45.2842 34.4619C45.7539 34.1572 46.2617 34.0049 46.8076 34.0049C47.7005 34.0049 48.3945 34.299 48.8896 34.8872C49.3848 35.4754 49.6323 36.3175 49.6323 37.4136V37.9023H44.9795C44.9964 38.5794 45.1932 39.1274 45.5698 39.5464C45.9507 39.9611 46.4331 40.1685 47.0171 40.1685C47.4318 40.1685 47.783 40.0838 48.0708 39.9146C48.3586 39.7453 48.6104 39.521 48.8262 39.2417L49.5435 39.8003C48.9679 40.6847 48.1047 41.127 46.9536 41.127ZM46.8076 34.9697C46.3337 34.9697 45.9359 35.1432 45.6143 35.4902C45.2926 35.833 45.0938 36.3154 45.0176 36.9375H48.458V36.8486C48.4242 36.252 48.2633 35.7907 47.9756 35.4648C47.6878 35.1348 47.2985 34.9697 46.8076 34.9697ZM50.9399 40.0415L51.3462 39.54C51.8032 38.9476 52.0635 38.0589 52.127 36.874L52.2349 34.1318H56.6592V40.0415H57.5415V43.0186H56.3672V41H51.5747V43.0186H50.4004L50.4067 40.0415H50.9399ZM52.3301 40.0415H55.4849V35.2173H53.3711L53.3013 36.855C53.2293 38.2218 52.9056 39.284 52.3301 40.0415ZM64.4541 41H63.2798V38.0674H60.125V41H58.9443V34.1318H60.125V37.1089H63.2798V34.1318H64.4541V41ZM69.1958 41.127C68.2648 41.127 67.5073 40.8223 66.9233 40.2129C66.3394 39.5993 66.0474 38.7804 66.0474 37.7563V37.5405C66.0474 36.8592 66.1764 36.252 66.4346 35.7188C66.6969 35.1813 67.0609 34.7624 67.5264 34.4619C67.9961 34.1572 68.5039 34.0049 69.0498 34.0049C69.9427 34.0049 70.6367 34.299 71.1318 34.8872C71.627 35.4754 71.8745 36.3175 71.8745 37.4136V37.9023H67.2217C67.2386 38.5794 67.4354 39.1274 67.812 39.5464C68.1929 39.9611 68.6753 40.1685 69.2593 40.1685C69.674 40.1685 70.0252 40.0838 70.313 39.9146C70.6007 39.7453 70.8525 39.521 71.0684 39.2417L71.7856 39.8003C71.2101 40.6847 70.3468 41.127 69.1958 41.127ZM69.0498 34.9697C68.5758 34.9697 68.1781 35.1432 67.8564 35.4902C67.5348 35.833 67.3359 36.3154 67.2598 36.9375H70.7002V36.8486C70.6663 36.252 70.5055 35.7907 70.2178 35.4648C69.93 35.1348 69.5407 34.9697 69.0498 34.9697ZM73.3472 41V34.1318H76.0259C76.9399 34.1318 77.6403 34.2926 78.127 34.6143C78.6178 34.9316 78.8633 35.3993 78.8633 36.0171C78.8633 36.3345 78.7681 36.6222 78.5776 36.8804C78.3872 37.1343 78.1058 37.3289 77.7334 37.4644C78.1481 37.5617 78.4803 37.7521 78.73 38.0356C78.9839 38.3192 79.1108 38.6577 79.1108 39.0513C79.1108 39.6818 78.8781 40.1642 78.4126 40.4985C77.9513 40.8328 77.2975 41 76.4512 41H73.3472ZM74.5215 37.9849V40.0542H76.4639C76.9548 40.0542 77.3208 39.9632 77.562 39.7812C77.8075 39.5993 77.9302 39.3433 77.9302 39.0132C77.9302 38.3276 77.4266 37.9849 76.4194 37.9849H74.5215ZM74.5215 37.0454H76.0386C77.1388 37.0454 77.689 36.7238 77.689 36.0806C77.689 35.4373 77.1685 35.1051 76.1274 35.084H74.5215V37.0454ZM86.2773 41H85.103V38.0674H81.9482V41H80.7676V34.1318H81.9482V37.1089H85.103V34.1318H86.2773V41ZM87.8579 37.5024C87.8579 36.8296 87.9891 36.2244 88.2515 35.687C88.5181 35.1496 88.8862 34.7349 89.356 34.4429C89.8299 34.1509 90.3695 34.0049 90.9746 34.0049C91.9098 34.0049 92.6652 34.3286 93.2407 34.9761C93.8205 35.6235 94.1104 36.4847 94.1104 37.5596V37.6421C94.1104 38.3107 93.9813 38.9116 93.7231 39.4448C93.4692 39.9738 93.1032 40.3864 92.625 40.6826C92.151 40.9788 91.6051 41.127 90.9873 41.127C90.0563 41.127 89.3009 40.8032 88.7212 40.1558C88.1457 39.5083 87.8579 38.6514 87.8579 37.585V37.5024ZM89.0386 37.6421C89.0386 38.4038 89.2142 39.0153 89.5654 39.4766C89.9209 39.9378 90.3949 40.1685 90.9873 40.1685C91.584 40.1685 92.0579 39.9357 92.4092 39.4702C92.7604 39.0005 92.936 38.3446 92.936 37.5024C92.936 36.7492 92.7562 36.1398 92.3965 35.6743C92.041 35.2046 91.5671 34.9697 90.9746 34.9697C90.3949 34.9697 89.9272 35.2004 89.5718 35.6616C89.2163 36.1229 89.0386 36.783 89.0386 37.6421ZM103.188 36.9375C102.942 37.2295 102.648 37.4644 102.305 37.6421C101.967 37.8198 101.594 37.9087 101.188 37.9087C100.655 37.9087 100.189 37.7775 99.7915 37.5151C99.3979 37.2528 99.0933 36.8846 98.8774 36.4106C98.6616 35.9325 98.5537 35.4056 98.5537 34.8301C98.5537 34.2122 98.6701 33.6558 98.9028 33.1606C99.1398 32.6655 99.4741 32.2868 99.9058 32.0244C100.337 31.762 100.841 31.6309 101.417 31.6309C102.331 31.6309 103.05 31.9736 103.575 32.6592C104.104 33.3405 104.368 34.2715 104.368 35.4521V35.7949C104.368 37.5934 104.013 38.9074 103.302 39.7368C102.591 40.562 101.518 40.9852 100.083 41.0063H99.855V40.0161H100.103C101.072 39.9992 101.816 39.7474 102.337 39.2607C102.857 38.7699 103.141 37.9954 103.188 36.9375ZM101.378 36.9375C101.772 36.9375 102.134 36.8169 102.464 36.5757C102.798 36.3345 103.042 36.0361 103.194 35.6807V35.2109C103.194 34.4408 103.027 33.8145 102.692 33.332C102.358 32.8496 101.935 32.6084 101.423 32.6084C100.907 32.6084 100.492 32.8073 100.179 33.2051C99.8656 33.5986 99.709 34.1191 99.709 34.7666C99.709 35.3971 99.8592 35.9176 100.16 36.3281C100.464 36.7344 100.871 36.9375 101.378 36.9375ZM106.069 40.3843C106.069 40.1812 106.129 40.0119 106.247 39.8765C106.37 39.741 106.552 39.6733 106.793 39.6733C107.034 39.6733 107.216 39.741 107.339 39.8765C107.466 40.0119 107.529 40.1812 107.529 40.3843C107.529 40.5789 107.466 40.7419 107.339 40.873C107.216 41.0042 107.034 41.0698 106.793 41.0698C106.552 41.0698 106.37 41.0042 106.247 40.873C106.129 40.7419 106.069 40.5789 106.069 40.3843ZM106.076 34.7793C106.076 34.5762 106.135 34.4069 106.253 34.2715C106.376 34.1361 106.558 34.0684 106.799 34.0684C107.041 34.0684 107.222 34.1361 107.345 34.2715C107.472 34.4069 107.536 34.5762 107.536 34.7793C107.536 34.974 107.472 35.1369 107.345 35.2681C107.222 35.3993 107.041 35.4648 106.799 35.4648C106.558 35.4648 106.376 35.3993 106.253 35.2681C106.135 35.1369 106.076 34.974 106.076 34.7793ZM114.931 37.0581C114.931 38.4334 114.696 39.4554 114.226 40.124C113.756 40.7926 113.022 41.127 112.023 41.127C111.037 41.127 110.307 40.8011 109.833 40.1494C109.36 39.4935 109.114 38.516 109.097 37.2168V35.6489C109.097 34.2905 109.332 33.2812 109.802 32.6211C110.271 31.9609 111.008 31.6309 112.011 31.6309C113.005 31.6309 113.737 31.9504 114.207 32.5894C114.677 33.2241 114.918 34.2059 114.931 35.5347V37.0581ZM113.756 35.4521C113.756 34.4577 113.617 33.734 113.337 33.2812C113.058 32.8242 112.616 32.5957 112.011 32.5957C111.41 32.5957 110.972 32.8221 110.697 33.2749C110.422 33.7277 110.28 34.4238 110.271 35.3633V37.2422C110.271 38.2409 110.415 38.9793 110.703 39.4575C110.995 39.9315 111.435 40.1685 112.023 40.1685C112.603 40.1685 113.033 39.9442 113.312 39.4956C113.596 39.047 113.744 38.3403 113.756 37.3755V35.4521ZM122.23 37.0581C122.23 38.4334 121.996 39.4554 121.526 40.124C121.056 40.7926 120.322 41.127 119.323 41.127C118.337 41.127 117.607 40.8011 117.133 40.1494C116.659 39.4935 116.414 38.516 116.397 37.2168V35.6489C116.397 34.2905 116.632 33.2812 117.102 32.6211C117.571 31.9609 118.308 31.6309 119.311 31.6309C120.305 31.6309 121.037 31.9504 121.507 32.5894C121.977 33.2241 122.218 34.2059 122.23 35.5347V37.0581ZM121.056 35.4521C121.056 34.4577 120.917 33.734 120.637 33.2812C120.358 32.8242 119.916 32.5957 119.311 32.5957C118.71 32.5957 118.272 32.8221 117.997 33.2749C117.722 33.7277 117.58 34.4238 117.571 35.3633V37.2422C117.571 38.2409 117.715 38.9793 118.003 39.4575C118.295 39.9315 118.735 40.1685 119.323 40.1685C119.903 40.1685 120.333 39.9442 120.612 39.4956C120.895 39.047 121.043 38.3403 121.056 37.3755V35.4521ZM133.58 36.8677H127.22V35.9092H133.58V36.8677ZM144.771 41H138.715V40.1558L141.915 36.6011C142.389 36.0636 142.714 35.6278 142.892 35.2935C143.074 34.9549 143.165 34.6058 143.165 34.2461C143.165 33.7637 143.019 33.368 142.727 33.0591C142.435 32.7502 142.046 32.5957 141.559 32.5957C140.975 32.5957 140.52 32.7629 140.194 33.0972C139.873 33.4272 139.712 33.8885 139.712 34.481H138.538C138.538 33.6304 138.811 32.9427 139.356 32.418C139.907 31.8932 140.641 31.6309 141.559 31.6309C142.418 31.6309 143.097 31.8573 143.597 32.3101C144.096 32.7586 144.346 33.3574 144.346 34.1064C144.346 35.0163 143.766 36.0996 142.606 37.3564L140.131 40.0415H144.771V41ZM152.071 41H146.015V40.1558L149.214 36.6011C149.688 36.0636 150.014 35.6278 150.192 35.2935C150.374 34.9549 150.465 34.6058 150.465 34.2461C150.465 33.7637 150.319 33.368 150.027 33.0591C149.735 32.7502 149.346 32.5957 148.859 32.5957C148.275 32.5957 147.82 32.7629 147.494 33.0972C147.173 33.4272 147.012 33.8885 147.012 34.481H145.837C145.837 33.6304 146.11 32.9427 146.656 32.418C147.206 31.8932 147.941 31.6309 148.859 31.6309C149.718 31.6309 150.397 31.8573 150.896 32.3101C151.396 32.7586 151.646 33.3574 151.646 34.1064C151.646 35.0163 151.066 36.0996 149.906 37.3564L147.431 40.0415H152.071V41ZM153.397 40.3843C153.397 40.1812 153.457 40.0119 153.575 39.8765C153.698 39.741 153.88 39.6733 154.121 39.6733C154.362 39.6733 154.544 39.741 154.667 39.8765C154.794 40.0119 154.857 40.1812 154.857 40.3843C154.857 40.5789 154.794 40.7419 154.667 40.873C154.544 41.0042 154.362 41.0698 154.121 41.0698C153.88 41.0698 153.698 41.0042 153.575 40.873C153.457 40.7419 153.397 40.5789 153.397 40.3843ZM153.404 34.7793C153.404 34.5762 153.463 34.4069 153.582 34.2715C153.704 34.1361 153.886 34.0684 154.127 34.0684C154.369 34.0684 154.551 34.1361 154.673 34.2715C154.8 34.4069 154.864 34.5762 154.864 34.7793C154.864 34.974 154.8 35.1369 154.673 35.2681C154.551 35.3993 154.369 35.4648 154.127 35.4648C153.886 35.4648 153.704 35.3993 153.582 35.2681C153.463 35.1369 153.404 34.974 153.404 34.7793ZM162.259 37.0581C162.259 38.4334 162.024 39.4554 161.554 40.124C161.084 40.7926 160.35 41.127 159.352 41.127C158.366 41.127 157.636 40.8011 157.162 40.1494C156.688 39.4935 156.442 38.516 156.425 37.2168V35.6489C156.425 34.2905 156.66 33.2812 157.13 32.6211C157.6 31.9609 158.336 31.6309 159.339 31.6309C160.333 31.6309 161.065 31.9504 161.535 32.5894C162.005 33.2241 162.246 34.2059 162.259 35.5347V37.0581ZM161.084 35.4521C161.084 34.4577 160.945 33.734 160.666 33.2812C160.386 32.8242 159.944 32.5957 159.339 32.5957C158.738 32.5957 158.3 32.8221 158.025 33.2749C157.75 33.7277 157.608 34.4238 157.6 35.3633V37.2422C157.6 38.2409 157.743 38.9793 158.031 39.4575C158.323 39.9315 158.763 40.1685 159.352 40.1685C159.931 40.1685 160.361 39.9442 160.64 39.4956C160.924 39.047 161.072 38.3403 161.084 37.3755V35.4521ZM169.559 37.0581C169.559 38.4334 169.324 39.4554 168.854 40.124C168.384 40.7926 167.65 41.127 166.651 41.127C165.665 41.127 164.935 40.8011 164.461 40.1494C163.987 39.4935 163.742 38.516 163.725 37.2168V35.6489C163.725 34.2905 163.96 33.2812 164.43 32.6211C164.899 31.9609 165.636 31.6309 166.639 31.6309C167.633 31.6309 168.365 31.9504 168.835 32.5894C169.305 33.2241 169.546 34.2059 169.559 35.5347V37.0581ZM168.384 35.4521C168.384 34.4577 168.245 33.734 167.965 33.2812C167.686 32.8242 167.244 32.5957 166.639 32.5957C166.038 32.5957 165.6 32.8221 165.325 33.2749C165.05 33.7277 164.908 34.4238 164.899 35.3633V37.2422C164.899 38.2409 165.043 38.9793 165.331 39.4575C165.623 39.9315 166.063 40.1685 166.651 40.1685C167.231 40.1685 167.661 39.9442 167.94 39.4956C168.223 39.047 168.372 38.3403 168.384 37.3755V35.4521Z" fill="#7D808A"/>
<path fill-rule="evenodd" clip-rule="evenodd" d="M1.88541 4.51019C2.06038 4.33547 2.27048 4.19994 2.50179 4.11257C2.7331 4.02519 2.98033 3.98798 3.22711 4.00339C3.47389 4.01881 3.71457 4.08649 3.93321 4.20197C4.15185 4.31744 4.34346 4.47807 4.49533 4.6732L6.29027 6.97931C6.61926 7.40233 6.73526 7.95335 6.60526 8.47338L6.05828 10.6635C6.03 10.7769 6.03153 10.8957 6.06272 11.0084C6.0939 11.1211 6.15369 11.2238 6.23628 11.3065L8.6932 13.7636C8.77603 13.8464 8.87889 13.9063 8.99174 13.9375C9.1046 13.9687 9.2236 13.9701 9.33718 13.9416L11.5261 13.3946C11.7827 13.3304 12.0506 13.3255 12.3094 13.38C12.5682 13.4346 12.8112 13.5473 13.0201 13.7096L15.326 15.5037C16.155 16.1487 16.231 17.3738 15.489 18.1148L14.455 19.1489C13.715 19.8889 12.6091 20.2139 11.5781 19.8509C8.93937 18.9224 6.54354 17.4116 4.56833 15.4307C2.58768 13.4556 1.07705 11.06 0.148466 8.42137C-0.213522 7.39133 0.111467 6.28428 0.851444 5.54424L1.88541 4.51019Z" fill="#008139"/>
</svg>
